HIERARCHY
ROOT Hips
{
	OFFSET -3.958830 18.904000 13.208200
	CHANNELS 6 Xposition Yposition Zposition Zrotation Yrotation Xrotation 
	JOINT LHipJoint
	{
		OFFSET 0.000000 0.000000 0.000000
		CHANNELS 3 Zrotation Yrotation Xrotation
		JOINT LeftUpLeg
		{
			OFFSET 1.800000 -1.400000 0.085000
			CHANNELS 3 Zrotation Yrotation Xrotation
			JOINT LeftLeg
			{
				OFFSET 2.215000 -6.000000 0.000000
				CHANNELS 3 Zrotation Yrotation Xrotation
				JOINT LeftFoot
				{
					OFFSET 2.500000 -6.900000 0.000000
					CHANNELS 3 Zrotation Yrotation Xrotation
					JOINT LeftToeBase
					{
						OFFSET 0.200000 -0.500000 1.950000
						CHANNELS 3 Zrotation Yrotation Xrotation
						End Site
						{
							OFFSET 0.000000 0.000000 0.000000
						}
					}
				}
			}
		}
	}
	JOINT RHipJoint
	{
		OFFSET 0.000000 0.000000 0.000000
		CHANNELS 3 Zrotation Yrotation Xrotation
		JOINT RightUpLeg
		{
			OFFSET -1.800000 -1.400000 0.085000
			CHANNELS 3 Zrotation Yrotation Xrotation
			JOINT RightLeg
			{
				OFFSET -2.215000 -6.000000 0.000000
				CHANNELS 3 Zrotation Yrotation Xrotation
				JOINT RightFoot
				{
					OFFSET -2.500000 -6.900000 0.000000
					CHANNELS 3 Zrotation Yrotation Xrotation
					JOINT RightToeBase
					{
						OFFSET -0.200000 -0.500000 1.950000
						CHANNELS 3 Zrotation Yrotation Xrotation
						End Site
						{
							OFFSET 0.000000 0.000000 0.000000
						}
					}
				}
			}
		}
	}
	JOINT LowerBack
	{
		OFFSET 0.000000 0.000000 0.000000
		CHANNELS 3 Zrotation Yrotation Xrotation
		JOINT Spine
		{
			OFFSET -0.087000 1.940000 -0.288900
			CHANNELS 3 Zrotation Yrotation Xrotation
			JOINT Spine1
			{
				OFFSET 0.000000 1.950000 0.060000
				CHANNELS 3 Zrotation Yrotation Xrotation
				JOINT Neck
				{
					OFFSET 0.000000 0.000000 0.000000
					CHANNELS 3 Zrotation Yrotation Xrotation
					JOINT Neck1
					{
						OFFSET 0.000000 1.600000 0.340000
						CHANNELS 3 Zrotation Yrotation Xrotation
						JOINT Head
						{
							OFFSET 0.000000 1.667000 -0.240000
							CHANNELS 3 Zrotation Yrotation Xrotation
							End Site
							{
								OFFSET 0.000000 0.000000 0.000000
							}
						}
					}
				}
				JOINT LeftShoulder
				{
					OFFSET 0.000000 0.000000 0.000000
					CHANNELS 3 Zrotation Yrotation Xrotation
					JOINT LeftArm
					{
						OFFSET 2.700000 1.550000 -0.730000
						CHANNELS 3 Zrotation Yrotation Xrotation
						JOINT LeftForeArm
						{
							OFFSET 5.450000 0.000000 0.000000
							CHANNELS 3 Zrotation Yrotation Xrotation
							JOINT LeftHand
							{
								OFFSET 3.450000 0.000000 0.000000
								CHANNELS 3 Zrotation Yrotation Xrotation
								JOINT LeftHandIndex1
								{
									OFFSET 0.750000 0.000000 0.000000
									CHANNELS 3 Zrotation Yrotation Xrotation
									End Site
									{
										OFFSET 0.000000 0.000000 0.000000
									}
								}
							}
						}
					}
				}
				JOINT RightShoulder
				{
					OFFSET 0.000000 0.000000 0.000000
					CHANNELS 3 Zrotation Yrotation Xrotation
					JOINT RightArm
					{
						OFFSET -2.700000 1.550000 -0.730000
						CHANNELS 3 Zrotation Yrotation Xrotation
						JOINT RightForeArm
						{
							OFFSET -5.450000 0.000000 0.000000
							CHANNELS 3 Zrotation Yrotation Xrotation
							JOINT RightHand
							{
								OFFSET -3.450000 0.000000 0.000000
								CHANNELS 3 Zrotation Yrotation Xrotation
								JOINT RightHandIndex1
								{
									OFFSET -0.750000 0.000000 0.000000
									CHANNELS 3 Zrotation Yrotation Xrotation
									End Site
									{
										OFFSET 0.000000 0.000000 0.000000
									}
								}
							}
						}
					}
				}
			}
		}
	}
}
MOTION
Frames: 14
Frame Time: 0.016667
2.996630 16.819880 -4.346100 -2.622359 7.092454 1.472513 -15.273671 13.312890 2.561281 -0.103022 -0.099543 -3.935037 -7.950726 7.518475 18.629757 -0.089797 5.073032 2.952689 0.340750 -0.044450 0.284430 18.456130 -8.646841 4.988973 16.836789 12.754449 -36.961795 -12.155967 -0.139787 48.618187 -0.960785 -5.909707 2.320703 -0.077310 0.079150 0.246160 -3.740905 -3.952913 -8.445081 15.356836 -10.957336 21.626898 -8.180193 -7.662560 -1.846887 5.286424 -7.468054 -8.570396 -15.821229 5.752034 32.546704 -1.088700 0.446710 -17.899080 -21.399513 1.485210 -0.539131 -61.638979 -3.264123 -6.618639 -25.062051 -26.065259 2.526133 -3.497409 2.979348 0.729260 -0.110340 0.142400 0.151410 10.656603 2.300072 6.517090 53.237053 -4.753538 -14.143204 51.683093 73.202273 29.033626 2.158768 -1.757808 -0.148170 0.152930 -0.017430 -0.198170 
3.027800 16.741270 -4.259580 -1.907600 6.317368 0.383302 -15.335005 13.429439 2.648323 -0.889698 0.132442 -2.510246 -7.678097 7.829123 20.088100 -0.031735 5.332332 2.842255 0.356750 -0.043600 0.312700 18.382027 -8.621295 4.943499 17.138246 12.396556 -35.924798 -11.784658 -0.057214 45.765972 -0.855144 -5.414341 2.458803 -0.074650 0.046110 0.271080 -3.543098 -4.199895 -8.501899 13.663465 -10.337964 22.155511 -6.795306 -7.273380 -1.360407 5.241097 -7.150198 -8.895841 -15.633367 5.791351 33.785127 -2.203280 0.745890 -17.003110 -21.764759 0.510140 -0.130747 -59.195847 -3.278675 -6.102374 -30.364362 -27.554184 4.047002 -3.484653 3.079816 0.725790 -0.110400 0.148280 0.133750 11.328289 3.263623 6.739787 50.532793 -4.608452 -13.214569 55.075721 77.499042 33.472095 2.238469 -1.718797 -0.130290 0.106940 -0.017310 -0.215140 
3.062620 16.675430 -4.173500 -1.513431 5.256483 -1.046483 -15.389209 13.572015 2.751553 -0.967056 0.330453 -0.930499 -8.074142 8.416751 21.613716 0.092065 5.657905 2.697509 0.387380 -0.008900 0.349300 18.303477 -8.610135 4.878846 17.440234 11.949836 -34.331604 -10.828025 -0.288235 42.704161 -0.766674 -4.869482 2.620615 -0.080210 -0.026300 0.296330 -3.344407 -4.460892 -8.583543 12.499384 -9.893733 23.461514 -5.964613 -6.802319 -1.476494 5.575122 -6.881966 -9.413394 -15.699508 6.098806 35.839988 -3.365870 1.317100 -16.994340 -22.889919 -0.786134 0.345434 -56.057579 -2.538754 -6.102527 -34.849983 -28.799262 5.430768 -3.428767 3.179388 0.726200 -0.139850 0.189650 0.116000 11.961458 4.687975 7.196398 47.915419 -4.780452 -12.845935 56.462253 80.498630 36.068293 2.321960 -1.664188 -0.078000 0.042680 -0.038650 -0.221930 
3.101780 16.616350 -4.081240 -1.470655 4.145861 -2.442407 -15.412420 13.685880 2.837384 -0.708459 0.444304 0.640592 -8.528503 8.999919 22.979084 0.190475 6.011471 2.557495 0.408070 -0.002050 0.385390 18.257400 -8.626487 4.797175 17.871190 11.385111 -32.586978 -9.537186 -0.726721 39.454225 -0.685376 -4.324835 2.784650 -0.092680 -0.078990 0.323360 -3.235754 -4.639591 -8.638411 12.305571 -9.823657 24.279493 -5.858874 -6.577895 -1.073127 5.997757 -6.440552 -10.324337 -15.572548 6.465413 38.373357 -4.343950 1.890170 -16.673670 -23.589285 -3.328339 1.317577 -53.061029 -2.024340 -6.255096 -37.843413 -29.226555 6.121230 -3.375519 3.241918 0.753200 -0.165440 0.229780 0.104120 11.915061 7.102173 7.996063 46.710105 -5.044016 -14.105801 51.585354 81.887555 33.205987 2.247481 -1.751186 -0.050960 -0.001180 -0.050450 -0.236560 
3.146280 16.565830 -3.980590 -1.489761 3.081597 -3.644486 -15.433645 13.810413 2.932364 -0.453883 0.440503 1.928445 -9.066044 9.654821 24.597696 0.277023 6.399712 2.405309 0.418270 -0.003590 0.413350 18.211631 -8.656888 4.669884 17.989283 10.616155 -30.849785 -7.749298 -1.364004 35.991014 -0.594965 -3.775832 2.964277 -0.102760 -0.125460 0.331610 -3.131872 -4.851974 -8.663254 12.373842 -10.032358 24.983315 -5.817316 -6.596568 -0.667945 6.452994 -6.164399 -11.277482 -15.682765 7.119497 40.488919 -5.181480 2.628240 -16.765780 -23.834197 -5.556351 2.320791 -51.044760 -1.269822 -6.718118 -39.223629 -29.688326 6.345004 -3.329393 3.261943 0.788270 -0.191040 0.260280 0.086650 11.341335 9.301119 8.729367 45.885721 -5.227716 -15.374205 46.820466 82.653080 29.922239 2.170828 -1.802413 -0.042090 -0.024830 -0.051810 -0.258400 
3.191870 16.520920 -3.868160 -1.475852 2.274036 -4.143051 -15.417433 13.876952 3.003482 -0.615517 0.437786 2.733050 -9.181117 10.069791 26.045670 0.349947 6.657432 2.296642 0.422460 -0.000950 0.432110 18.207759 -8.728812 4.534420 17.564379 9.909225 -29.727604 -5.232730 -2.152002 32.467953 -0.496216 -3.253254 3.134713 -0.110560 -0.166060 0.328660 -3.145969 -4.912968 -8.634380 13.242332 -10.437390 24.780456 -6.390484 -6.823634 -0.527607 6.750457 -6.175666 -11.977100 -16.128592 7.832989 41.529420 -5.516840 3.263850 -16.764520 -23.906957 -7.122679 3.016325 -50.003350 -0.685061 -6.903416 -37.996961 -27.638580 5.234184 -3.296515 3.259077 0.800140 -0.214940 0.278380 0.065600 10.817404 10.890702 9.243293 45.986308 -5.356294 -16.620775 41.614703 82.774304 25.874585 2.111647 -1.839209 -0.028860 -0.048350 -0.052680 -0.270690 
3.233250 16.481180 -3.751190 -1.302843 1.740875 -4.040692 -15.390614 13.890891 3.049845 -1.129777 0.395336 3.000896 -8.882731 10.240992 27.402953 0.395076 6.845650 2.246142 0.388460 -0.044360 0.417320 18.220124 -8.815402 4.425742 16.910385 9.349522 -29.313918 -2.716440 -2.814463 29.205748 -0.397828 -2.837343 3.283864 -0.131240 -0.144880 0.322590 -3.200962 -4.858320 -8.597186 14.053532 -10.672694 23.659715 -6.793395 -7.032919 0.096726 6.828070 -5.887737 -12.703475 -15.650165 7.936724 41.722036 -5.818880 3.831530 -15.324120 -23.449793 -8.920030 3.976838 -49.690789 -0.276005 -7.141213 -36.474878 -26.952305 4.523262 -3.302377 3.235604 0.797400 -0.200030 0.263730 0.063130 10.153647 12.479106 9.762423 46.880542 -5.341745 -18.175523 33.915518 83.068116 19.757377 2.028064 -1.856390 -0.048630 -0.043970 -0.039780 -0.273880 
3.271930 16.458650 -3.631410 -1.133883 1.359312 -3.736454 -15.359281 13.865565 3.073957 -1.466594 0.319410 3.068367 -8.822813 10.442799 28.542957 0.443470 7.000731 2.203305 0.383770 -0.053320 0.424260 18.244343 -8.900762 4.325880 16.152528 8.896530 -29.069353 -0.231744 -3.360230 26.179233 -0.327741 -2.507355 3.406107 -0.139340 -0.139750 0.321600 -3.280847 -4.732931 -8.537737 14.915807 -10.926929 22.625404 -7.148437 -7.310893 0.658557 6.735350 -5.677665 -13.011359 -14.909103 7.949279 40.875876 -5.959010 4.549830 -15.108300 -22.429309 -9.712239 4.587606 -49.875372 -0.027521 -7.336185 -34.877437 -26.449146 3.949456 -3.307965 3.225680 0.791700 -0.192710 0.258350 0.064860 9.222408 13.070774 9.848228 48.010449 -4.496974 -18.880464 28.684236 82.278469 15.308636 1.987945 -1.853474 -0.051580 -0.050000 -0.047000 -0.277290 
3.311730 16.452770 -3.502060 -0.712519 0.661413 -3.239291 -15.335708 13.820125 3.114053 -2.121646 0.252818 2.937263 -8.885929 10.679327 29.733576 0.499783 7.149203 2.168969 0.362750 -0.056370 0.414790 18.264359 -8.982972 4.228994 15.484131 8.416552 -28.886489 1.497596 -3.634921 23.537837 -0.267114 -2.247297 3.520377 -0.142850 -0.124120 0.302050 -3.338502 -4.589210 -8.487917 15.408385 -11.086094 21.798265 -7.653673 -7.540865 0.634971 6.774870 -5.318243 -12.825369 -13.621550 7.883910 39.608115 -6.348750 5.556810 -15.449990 -21.972529 -9.323290 4.579352 -50.165755 0.374354 -7.421663 -32.660922 -25.363710 3.277687 -3.327784 3.179397 0.775820 -0.176670 0.249030 0.066050 8.560066 12.346685 9.646734 48.909059 -3.908794 -18.335461 30.670311 80.900352 16.497553 2.009828 -1.847813 -0.064370 -0.033450 -0.051870 -0.275380 
3.344180 16.454870 -3.367310 -0.168729 0.541364 -2.700368 -15.335529 13.797220 3.148510 -2.630139 -0.023204 2.443989 -8.820961 10.952538 31.537804 0.568685 7.356707 2.114242 0.358260 -0.038930 0.414370 18.261252 -9.049577 4.122824 14.726160 7.877950 -28.768817 2.862190 -3.760221 21.013541 -0.215673 -2.021196 3.626596 -0.135320 -0.111070 0.283870 -3.336505 -4.518497 -8.435388 15.282858 -11.273242 21.174221 -7.540177 -7.927814 0.479289 6.688537 -4.973704 -12.320467 -12.242370 7.724071 37.656604 -6.689950 6.483650 -16.306600 -21.544529 -8.302898 4.309502 -50.786835 0.626673 -7.567855 -31.547062 -25.127280 3.071595 -3.348538 3.154830 0.751960 -0.159990 0.239750 0.073730 8.237699 10.929392 9.154378 48.889441 -3.424395 -17.065507 35.892612 79.529577 20.102810 2.059020 -1.855028 -0.069910 -0.018400 -0.067920 -0.271370 
3.374480 16.448920 -3.221550 0.581095 1.158220 -1.786557 -15.320913 13.706014 3.157919 -2.907394 -0.494379 1.533325 -8.967784 11.414946 33.894740 0.656409 7.703382 2.031781 0.325810 -0.057850 0.383580 18.280280 -9.127054 4.032596 13.855321 7.502543 -29.346405 3.564085 -3.743057 19.095770 -0.152765 -1.872022 3.707337 -0.137360 -0.050050 0.282000 -3.395502 -4.299943 -8.356962 15.404223 -11.373465 19.912801 -7.693006 -8.268048 0.298773 6.470405 -4.349228 -11.637445 -10.207322 6.899700 34.563059 -7.071850 7.003250 -15.758390 -21.367845 -7.022497 3.845317 -50.777209 1.156453 -7.590979 -31.723624 -24.293137 3.008455 -3.409105 3.146365 0.704170 -0.104120 0.201240 0.092280 8.364061 8.922939 8.737975 49.008157 -4.155695 -15.554600 45.197168 78.571987 26.348022 2.141192 -1.858432 -0.088510 -0.003500 -0.068930 -0.255610 
3.399350 16.444640 -3.072610 1.548541 1.564027 -1.028906 -15.315462 13.591313 3.175601 -3.155771 -0.973797 0.795888 -9.219372 12.094736 36.687030 0.772228 8.172738 1.911604 0.309930 -0.051560 0.362610 18.298664 -9.179219 3.950773 13.075852 7.238319 -30.010693 3.669328 -3.604197 17.725263 -0.100101 -1.753402 3.780321 -0.121180 0.011090 0.270810 -3.437062 -4.077977 -8.282837 14.989910 -11.319378 18.650826 -7.557415 -8.568387 0.535799 6.040113 -3.868056 -11.064401 -8.717418 6.369231 31.863362 -7.018980 7.257740 -15.340630 -21.129656 -6.263070 3.656436 -50.467482 1.643138 -7.643149 -32.689293 -23.750720 3.086542 -3.465313 3.132387 0.653590 -0.050370 0.165780 0.114850 8.932433 7.551795 8.206171 48.627150 -4.401118 -14.586900 49.830396 76.677901 28.594391 2.182713 -1.839826 -0.106550 0.029750 -0.077090 -0.237720 
3.419920 16.456980 -2.945710 2.570752 1.049772 -1.074948 -15.338486 13.547519 3.293449 -3.337231 -1.774009 -0.338480 -10.008190 13.297817 40.498290 0.944575 8.852739 1.692215 0.336340 -0.008200 0.378970 18.272904 -9.207790 3.835913 12.566355 6.709020 -29.232669 3.362551 -3.419483 16.461440 -0.100658 -1.647537 3.830760 -0.101530 -0.007990 0.257820 -3.359687 -4.080390 -8.319615 13.811313 -10.979931 19.317188 -6.939792 -8.308063 0.144447 5.729280 -3.699256 -10.944028 -8.357398 6.126164 31.335807 -6.802590 7.214140 -16.798290 -21.681033 -6.334262 3.594315 -49.255073 2.004028 -7.649715 -33.849312 -23.150652 3.145026 -3.436066 3.130922 0.663090 -0.067870 0.187220 0.129250 10.191903 7.533623 8.119056 47.867885 -5.089799 -14.336448 53.349779 75.851616 30.365685 2.241563 -1.786514 -0.102770 0.041540 -0.106400 -0.235270 
3.429730 16.475030 -2.827540 3.465368 -0.535525 -1.339706 -15.366891 13.480115 3.456642 -3.401498 -2.721534 -1.878009 -11.229218 14.901153 44.474244 1.155246 9.641109 1.441874 0.360050 0.033940 0.393530 18.241905 -9.207638 3.753076 12.541392 6.323496 -28.149568 2.673371 -3.250395 16.031192 -0.121979 -1.606415 3.858938 -0.088600 -0.034940 0.239250 -3.251398 -4.094825 -8.424563 12.370031 -10.155020 20.727567 -6.137188 -7.427831 -0.801700 5.422768 -3.521169 -10.912029 -8.166800 5.807724 31.793031 -6.153140 6.973090 -18.181890 -22.642067 -6.552883 3.478172 -47.668292 2.341672 -7.596504 -35.162636 -22.416005 3.188089 -3.392269 3.122006 0.684020 -0.097810 0.218270 0.142330 11.898079 7.853079 8.145930 47.031871 -6.481087 -14.784095 54.318529 72.336486 29.015934 2.258334 -1.752957 -0.097950 0.055280 -0.136760 -0.231780 
